<svg width="153" height="19" viewBox="0 0 153 19" fill="none" xmlns="http://www.w3.org/2000/svg">
<path d="M6.584 18.168C5.352 18.168 4.248 17.968 3.272 17.568C2.296 17.168 1.512 16.576 0.92 15.792C0.344 15.008 0.0400001 14.064 0.00800008 12.96H4.376C4.44 13.584 4.656 14.064 5.024 14.4C5.392 14.72 5.872 14.88 6.464 14.88C7.072 14.88 7.552 14.744 7.904 14.472C8.256 14.184 8.432 13.792 8.432 13.296C8.432 12.88 8.288 12.536 8 12.264C7.728 11.992 7.384 11.768 6.968 11.592C6.568 11.416 5.992 11.216 5.24 10.992C4.152 10.656 3.264 10.32 2.576 9.984C1.888 9.648 1.296 9.152 0.8 8.496C0.304 7.84 0.0560001 6.984 0.0560001 5.928C0.0560001 4.36 0.624 3.136 1.76 2.256C2.896 1.36 4.376 0.912 6.2 0.912C8.056 0.912 9.552 1.36 10.688 2.256C11.824 3.136 12.432 4.368 12.512 5.952H8.072C8.04 5.408 7.84 4.984 7.472 4.68C7.104 4.36 6.632 4.2 6.056 4.2C5.56 4.2 5.16 4.336 4.856 4.608C4.552 4.864 4.4 5.24 4.4 5.736C4.4 6.28 4.656 6.704 5.168 7.008C5.68 7.312 6.48 7.64 7.568 7.992C8.656 8.36 9.536 8.712 10.208 9.048C10.896 9.384 11.488 9.872 11.984 10.512C12.48 11.152 12.728 11.976 12.728 12.984C12.728 13.944 12.48 14.816 11.984 15.6C11.504 16.384 10.8 17.008 9.872 17.472C8.944 17.936 7.848 18.168 6.584 18.168ZM22.7176 14.52V18H20.6296C19.1416 18 17.9816 17.64 17.1496 16.92C16.3176 16.184 15.9016 14.992 15.9016 13.344V8.016H14.2696V4.608H15.9016V1.344H20.0056V4.608H22.6936V8.016H20.0056V13.392C20.0056 13.792 20.1016 14.08 20.2936 14.256C20.4856 14.432 20.8056 14.52 21.2536 14.52H22.7176ZM38.2276 4.608V18H34.1236V16.176C33.7076 16.768 33.1396 17.248 32.4196 17.616C31.7156 17.968 30.9316 18.144 30.0676 18.144C29.0436 18.144 28.1396 17.92 27.3556 17.472C26.5716 17.008 25.9636 16.344 25.5316 15.48C25.0996 14.616 24.8836 13.6 24.8836 12.432V4.608H28.9636V11.88C28.9636 12.776 29.1956 13.472 29.6596 13.968C30.1236 14.464 30.7476 14.712 31.5316 14.712C32.3316 14.712 32.9636 14.464 33.4276 13.968C33.8916 13.472 34.1236 12.776 34.1236 11.88V4.608H38.2276ZM40.3595 11.28C40.3595 9.904 40.6155 8.696 41.1275 7.656C41.6555 6.616 42.3675 5.816 43.2635 5.256C44.1595 4.696 45.1595 4.416 46.2635 4.416C47.1435 4.416 47.9435 4.6 48.6635 4.968C49.3995 5.336 49.9755 5.832 50.3915 6.456V0.24H54.4955V18H50.3915V16.08C50.0075 16.72 49.4555 17.232 48.7355 17.616C48.0315 18 47.2075 18.192 46.2635 18.192C45.1595 18.192 44.1595 17.912 43.2635 17.352C42.3675 16.776 41.6555 15.968 41.1275 14.928C40.6155 13.872 40.3595 12.656 40.3595 11.28ZM50.3915 11.304C50.3915 10.28 50.1035 9.472 49.5275 8.88C48.9675 8.288 48.2795 7.992 47.4635 7.992C46.6475 7.992 45.9515 8.288 45.3755 8.88C44.8155 9.456 44.5355 10.256 44.5355 11.28C44.5355 12.304 44.8155 13.12 45.3755 13.728C45.9515 14.32 46.6475 14.616 47.4635 14.616C48.2795 14.616 48.9675 14.32 49.5275 13.728C50.1035 13.136 50.3915 12.328 50.3915 11.304ZM70.0886 11.088C70.0886 11.472 70.0646 11.872 70.0166 12.288H60.7286C60.7926 13.12 61.0566 13.76 61.5206 14.208C62.0006 14.64 62.5846 14.856 63.2726 14.856C64.2966 14.856 65.0086 14.424 65.4086 13.56H69.7766C69.5526 14.44 69.1446 15.232 68.5526 15.936C67.9766 16.64 67.2486 17.192 66.3686 17.592C65.4886 17.992 64.5046 18.192 63.4166 18.192C62.1046 18.192 60.9366 17.912 59.9126 17.352C58.8886 16.792 58.0886 15.992 57.5126 14.952C56.9366 13.912 56.6486 12.696 56.6486 11.304C56.6486 9.912 56.9286 8.696 57.4886 7.656C58.0646 6.616 58.8646 5.816 59.8886 5.256C60.9126 4.696 62.0886 4.416 63.4166 4.416C64.7126 4.416 65.8646 4.688 66.8726 5.232C67.8806 5.776 68.6646 6.552 69.2246 7.56C69.8006 8.568 70.0886 9.744 70.0886 11.088ZM65.8886 10.008C65.8886 9.304 65.6486 8.744 65.1686 8.328C64.6886 7.912 64.0886 7.704 63.3686 7.704C62.6806 7.704 62.0966 7.904 61.6166 8.304C61.1526 8.704 60.8646 9.272 60.7526 10.008H65.8886ZM80.4136 4.464C81.9816 4.464 83.2296 4.976 84.1576 6C85.1016 7.008 85.5736 8.4 85.5736 10.176V18H81.4936V10.728C81.4936 9.832 81.2616 9.136 80.7976 8.64C80.3336 8.144 79.7096 7.896 78.9256 7.896C78.1416 7.896 77.5176 8.144 77.0536 8.64C76.5896 9.136 76.3576 9.832 76.3576 10.728V18H72.2536V4.608H76.3576V6.384C76.7736 5.792 77.3336 5.328 78.0376 4.992C78.7416 4.64 79.5336 4.464 80.4136 4.464ZM95.8895 14.52V18H93.8015C92.3135 18 91.1535 17.64 90.3215 16.92C89.4895 16.184 89.0735 14.992 89.0735 13.344V8.016H87.4415V4.608H89.0735V1.344H93.1775V4.608H95.8655V8.016H93.1775V13.392C93.1775 13.792 93.2735 14.08 93.4655 14.256C93.6575 14.432 93.9775 14.52 94.4255 14.52H95.8895ZM117.256 1.152V18H113.152V7.896L109.384 18H106.072L102.28 7.872V18H98.1755V1.152H103.023L107.752 12.816L112.432 1.152H117.256ZM132.831 11.088C132.831 11.472 132.807 11.872 132.759 12.288H123.471C123.535 13.12 123.799 13.76 124.263 14.208C124.743 14.64 125.327 14.856 126.015 14.856C127.039 14.856 127.751 14.424 128.151 13.56H132.519C132.295 14.44 131.887 15.232 131.295 15.936C130.719 16.64 129.991 17.192 129.111 17.592C128.231 17.992 127.247 18.192 126.159 18.192C124.847 18.192 123.679 17.912 122.655 17.352C121.631 16.792 120.831 15.992 120.255 14.952C119.679 13.912 119.391 12.696 119.391 11.304C119.391 9.912 119.671 8.696 120.231 7.656C120.807 6.616 121.607 5.816 122.631 5.256C123.655 4.696 124.831 4.416 126.159 4.416C127.455 4.416 128.607 4.688 129.615 5.232C130.623 5.776 131.407 6.552 131.967 7.56C132.543 8.568 132.831 9.744 132.831 11.088ZM128.631 10.008C128.631 9.304 128.391 8.744 127.911 8.328C127.431 7.912 126.831 7.704 126.111 7.704C125.423 7.704 124.839 7.904 124.359 8.304C123.895 8.704 123.607 9.272 123.495 10.008H128.631ZM140.444 18.192C139.276 18.192 138.236 17.992 137.324 17.592C136.412 17.192 135.692 16.648 135.164 15.96C134.636 15.256 134.34 14.472 134.276 13.608H138.332C138.38 14.072 138.596 14.448 138.98 14.736C139.364 15.024 139.836 15.168 140.396 15.168C140.908 15.168 141.3 15.072 141.572 14.88C141.86 14.672 142.004 14.408 142.004 14.088C142.004 13.704 141.804 13.424 141.404 13.248C141.004 13.056 140.356 12.848 139.46 12.624C138.5 12.4 137.7 12.168 137.06 11.928C136.42 11.672 135.868 11.28 135.404 10.752C134.94 10.208 134.708 9.48 134.708 8.568C134.708 7.8 134.916 7.104 135.332 6.48C135.764 5.84 136.388 5.336 137.204 4.968C138.036 4.6 139.02 4.416 140.156 4.416C141.836 4.416 143.156 4.832 144.116 5.664C145.092 6.496 145.652 7.6 145.796 8.976H142.004C141.94 8.512 141.732 8.144 141.38 7.872C141.044 7.6 140.596 7.464 140.036 7.464C139.556 7.464 139.188 7.56 138.932 7.752C138.676 7.928 138.548 8.176 138.548 8.496C138.548 8.88 138.748 9.168 139.148 9.36C139.564 9.552 140.204 9.744 141.068 9.936C142.06 10.192 142.868 10.448 143.492 10.704C144.116 10.944 144.66 11.344 145.124 11.904C145.604 12.448 145.852 13.184 145.868 14.112C145.868 14.896 145.644 15.6 145.196 16.224C144.764 16.832 144.132 17.312 143.3 17.664C142.484 18.016 141.532 18.192 140.444 18.192ZM150.299 18.192C149.579 18.192 148.987 17.984 148.523 17.568C148.075 17.136 147.851 16.608 147.851 15.984C147.851 15.344 148.075 14.808 148.523 14.376C148.987 13.944 149.579 13.728 150.299 13.728C151.003 13.728 151.579 13.944 152.027 14.376C152.491 14.808 152.723 15.344 152.723 15.984C152.723 16.608 152.491 17.136 152.027 17.568C151.579 17.984 151.003 18.192 150.299 18.192Z" fill="white"/>
</svg>
